HIERARCHY
ROOT Hips
{
	OFFSET 0.000000 0.000000 0.000000
	CHANNELS 6 Xposition Yposition Zposition Zrotation Yrotation Xrotation 
	JOINT LHipJoint
	{
		OFFSET 0.000000 0.000000 0.000000
		CHANNELS 3 Zrotation Yrotation Xrotation
		JOINT LeftUpLeg
		{
			OFFSET 1.363060 -1.794630 0.839290
			CHANNELS 3 Zrotation Yrotation Xrotation
			JOINT LeftLeg
			{
				OFFSET 2.448110 -6.726130 0.000000
				CHANNELS 3 Zrotation Yrotation Xrotation
				JOINT LeftFoot
				{
					OFFSET 2.562200 -7.039590 0.000000
					CHANNELS 3 Zrotation Yrotation Xrotation
					JOINT LeftToeBase
					{
						OFFSET 0.157640 -0.433110 2.322550
						CHANNELS 3 Zrotation Yrotation Xrotation
						End Site
						{
							OFFSET 0.000000 0.000000 0.000000
						}
					}
				}
			}
		}
	}
	JOINT RHipJoint
	{
		OFFSET 0.000000 0.000000 0.000000
		CHANNELS 3 Zrotation Yrotation Xrotation
		JOINT RightUpLeg
		{
			OFFSET -1.305520 -1.794630 0.839290
			CHANNELS 3 Zrotation Yrotation Xrotation
			JOINT RightLeg
			{
				OFFSET -2.542530 -6.985550 0.000000
				CHANNELS 3 Zrotation Yrotation Xrotation
				JOINT RightFoot
				{
					OFFSET -2.568260 -7.056230 0.000000
					CHANNELS 3 Zrotation Yrotation Xrotation
					JOINT RightToeBase
					{
						OFFSET -0.164730 -0.452590 2.363150
						CHANNELS 3 Zrotation Yrotation Xrotation
						End Site
						{
							OFFSET 0.000000 0.000000 0.000000
						}
					}
				}
			}
		}
	}
	JOINT LowerBack
	{
		OFFSET 0.000000 0.000000 0.000000
		CHANNELS 3 Zrotation Yrotation Xrotation
		JOINT Spine
		{
			OFFSET 0.028270 2.035590 -0.193380
			CHANNELS 3 Zrotation Yrotation Xrotation
			JOINT Spine1
			{
				OFFSET 0.056720 2.048850 -0.042750
				CHANNELS 3 Zrotation Yrotation Xrotation
				JOINT Neck
				{
					OFFSET 0.000000 0.000000 0.000000
					CHANNELS 3 Zrotation Yrotation Xrotation
					JOINT Neck1
					{
						OFFSET -0.054170 1.746240 0.172020
						CHANNELS 3 Zrotation Yrotation Xrotation
						JOINT Head
						{
							OFFSET 0.104070 1.761360 -0.123970
							CHANNELS 3 Zrotation Yrotation Xrotation
							End Site
							{
								OFFSET 0.000000 0.000000 0.000000
							}
						}
					}
				}
				JOINT LeftShoulder
				{
					OFFSET 0.000000 0.000000 0.000000
					CHANNELS 3 Zrotation Yrotation Xrotation
					JOINT LeftArm
					{
						OFFSET 3.362410 1.200890 -0.311210
						CHANNELS 3 Zrotation Yrotation Xrotation
						JOINT LeftForeArm
						{
							OFFSET 4.983000 -0.000000 -0.000000
							CHANNELS 3 Zrotation Yrotation Xrotation
							JOINT LeftHand
							{
								OFFSET 3.483560 -0.000000 -0.000000
								CHANNELS 3 Zrotation Yrotation Xrotation
								JOINT LeftFingerBase
								{
									OFFSET 0.000000 0.000000 0.000000
									CHANNELS 3 Zrotation Yrotation Xrotation
									JOINT LeftHandIndex1
									{
										OFFSET 0.715260 -0.000000 -0.000000
										CHANNELS 3 Zrotation Yrotation Xrotation
										End Site
										{
											OFFSET 0.000000 0.000000 0.000000
										}
									}
								}
								JOINT LThumb
								{
									OFFSET 0.000000 0.000000 0.000000
									CHANNELS 3 Zrotation Yrotation Xrotation
									End Site
									{
										OFFSET 0.000000 0.000000 0.000000
									}
								}
							}
						}
					}
				}
				JOINT RightShoulder
				{
					OFFSET 0.000000 0.000000 0.000000
					CHANNELS 3 Zrotation Yrotation Xrotation
					JOINT RightArm
					{
						OFFSET -3.136600 1.374050 -0.404650
						CHANNELS 3 Zrotation Yrotation Xrotation
						JOINT RightForeArm
						{
							OFFSET -5.241900 -0.000000 -0.000000
							CHANNELS 3 Zrotation Yrotation Xrotation
							JOINT RightHand
							{
								OFFSET -3.444170 -0.000000 -0.000000
								CHANNELS 3 Zrotation Yrotation Xrotation
								JOINT RightFingerBase
								{
									OFFSET 0.000000 0.000000 0.000000
									CHANNELS 3 Zrotation Yrotation Xrotation
									JOINT RightHandIndex1
									{
										OFFSET -0.622530 -0.000000 -0.000000
										CHANNELS 3 Zrotation Yrotation Xrotation
										End Site
										{
											OFFSET 0.000000 0.000000 0.000000
										}
									}
								}
								JOINT RThumb
								{
									OFFSET 0.000000 0.000000 0.000000
									CHANNELS 3 Zrotation Yrotation Xrotation
									End Site
									{
										OFFSET 0.000000 0.000000 0.000000
									}
								}
							}
						}
					}
				}
			}
		}
	}
}
MOTION
Frames: 8
Frame Time: 0.008333
-2.584489 16.043189 -0.015555 51.267834 82.512220 80.507900 -12.083283 0.721008 -5.345299 -6.481321 11.802024 -33.559787 -0.681791 4.144942 59.288833 0.083783 -4.573686 3.330564 -0.797299 -0.000000 -73.044599 7.479387 1.269377 -2.156156 19.035263 -2.021945 -66.578090 2.449013 -4.145503 45.736537 -3.643185 -10.207167 -18.969370 -178.636700 0.000000 -15.718900 5.762435 -2.253388 10.745439 0.636350 -2.209174 -0.875986 -4.744661 -2.185243 -0.969054 5.758524 -7.865653 -5.183480 -2.794685 -0.207846 0.214048 0.000000 0.000000 0.000000 4.759209 4.445179 1.401284 -56.603501 -8.679426 11.406668 -179.137833 -80.764116 -179.989353 -2.359158 5.268463 -0.100248 -0.033279 0.297724 -0.000000 0.000000 0.000000 0.000000 0.000000 0.000000 0.000000 6.776013 -4.257414 1.234339 73.587743 -12.315711 5.663608 0.398291 75.007361 -0.022837 -6.033453 1.935713 -0.116082 0.072217 -0.254236 -0.000000 0.000000 0.000000 0.000000 0.000000 0.000000 0.000000 
-2.459649 16.039037 0.037242 50.018843 82.188927 79.197490 -12.067465 0.742126 -5.328773 -6.430918 11.622090 -33.725236 -0.531045 4.198061 60.186555 0.145945 -4.505706 4.807821 -0.937600 -0.000000 -70.833300 7.549151 1.337954 -2.255546 18.884400 -2.128008 -66.195359 2.406063 -4.176003 46.453977 -3.649411 -10.041210 -19.866335 -178.427500 0.000000 -15.522199 5.706993 -2.212775 10.840882 0.635323 -2.161215 -0.866841 -4.681730 -2.138891 -1.013837 5.821882 -7.615348 -5.031849 -2.778712 -0.208144 0.253779 0.000000 0.000000 0.000000 4.762328 4.312722 1.388717 -57.526024 -7.845991 11.637978 -179.204869 -81.503840 -179.988339 -2.495916 5.262615 -0.106366 -0.027194 0.292668 -0.000000 0.000000 0.000000 0.000000 0.000000 0.000000 0.000000 6.750005 -4.008188 1.196242 73.555571 -11.427864 5.534403 0.399222 74.817450 -0.023521 -6.136784 1.860973 -0.114188 0.073887 -0.255876 -0.000000 0.000000 0.000000 0.000000 0.000000 0.000000 0.000000 
-2.335823 16.036350 0.090085 48.890563 81.847484 78.021270 -12.044548 0.762609 -5.310195 -6.444833 11.453686 -33.923125 -0.390551 4.243102 61.039010 0.218640 -4.337872 6.250515 -1.054700 0.000000 -68.073199 7.623163 1.401849 -2.342029 18.724984 -2.247764 -65.812262 2.371395 -4.200046 47.090715 -3.648211 -9.854802 -20.700721 -178.241500 0.000000 -15.431400 5.643659 -2.169127 10.918397 0.632579 -2.110896 -0.858983 -4.620153 -2.090106 -1.049112 5.886360 -7.384374 -4.877433 -2.756885 -0.208119 0.294719 0.000000 0.000000 0.000000 4.743499 4.188129 1.376985 -58.410348 -7.049392 11.875551 -179.276537 -82.325576 -179.987408 -2.630060 5.250892 -0.112383 -0.021498 0.287336 -0.000000 0.000000 0.000000 0.000000 0.000000 0.000000 0.000000 6.706482 -3.781249 1.150300 73.538586 -10.546005 5.390317 0.398566 74.667962 -0.024245 -6.243871 1.781772 -0.111895 0.075602 -0.257578 -0.000000 0.000000 0.000000 0.000000 0.000000 0.000000 0.000000 
-2.212965 16.035233 0.142728 47.850102 81.486469 76.948252 -12.015556 0.782871 -5.290258 -6.521724 11.302882 -34.157994 -0.262362 4.281792 61.849602 0.298526 -4.075220 7.613266 -1.137200 0.000000 -64.709100 7.701079 1.461125 -2.417313 18.561749 -2.385658 -65.449265 2.343787 -4.222398 47.677097 -3.635553 -9.634068 -21.466993 -178.081799 0.000000 -15.466100 5.574304 -2.122831 10.979862 0.628346 -2.058640 -0.852228 -4.560328 -2.039326 -1.075988 5.949511 -7.172090 -4.725362 -2.729881 -0.207755 0.335310 0.000000 0.000000 0.000000 4.699800 4.078239 1.368359 -59.250259 -6.289793 12.118944 -179.351654 -83.220901 -179.986606 -2.755928 5.233263 -0.117698 -0.016431 0.281798 -0.000000 0.000000 0.000000 0.000000 0.000000 0.000000 0.000000 6.645250 -3.573524 1.097122 73.533033 -9.674142 5.236786 0.395924 74.572516 -0.025011 -6.353256 1.699419 -0.109402 0.077321 -0.259431 -0.000000 0.000000 0.000000 0.000000 0.000000 0.000000 0.000000 
-2.091143 16.035916 0.194862 46.822597 81.110610 75.908631 -11.983050 0.801225 -5.270593 -6.648060 11.181522 -34.438590 -0.148269 4.316755 62.619104 0.382267 -3.719156 8.843086 -1.174200 -0.000000 -60.910900 7.779319 1.512737 -2.479978 18.406597 -2.527874 -65.111966 2.322845 -4.243170 48.216708 -3.611416 -9.379320 -22.158702 -177.950400 -0.000000 -15.610900 5.507122 -2.073157 11.025291 0.624278 -2.003810 -0.847269 -4.502389 -1.986029 -1.097100 6.007598 -6.971075 -4.578729 -2.698520 -0.207072 0.374588 0.000000 0.000000 0.000000 4.626485 3.986935 1.365357 -60.042314 -5.561399 12.362729 -179.428982 -84.177413 -179.985957 -2.868868 5.206591 -0.122310 -0.012145 0.276219 -0.000000 0.000000 0.000000 0.000000 0.000000 0.000000 0.000000 6.563894 -3.374385 1.038060 73.535150 -8.816022 5.079117 0.391248 74.538211 -0.025807 -6.459429 1.621773 -0.106909 0.078951 -0.261577 -0.000000 0.000000 0.000000 0.000000 0.000000 0.000000 0.000000 
-1.970419 16.038602 0.246253 45.763293 80.721602 74.859798 -11.948369 0.817155 -5.252517 -6.814159 11.095515 -34.768990 -0.048659 4.350297 63.350199 0.466921 -3.270440 9.894106 -1.157600 0.000000 -56.833600 7.856066 1.555077 -2.531225 18.269176 -2.671054 -64.802883 2.308967 -4.263196 48.715465 -3.574233 -9.083285 -22.775660 -177.848500 0.000000 -15.820300 5.446312 -2.020351 11.057206 0.621146 -1.946604 -0.844082 -4.446619 -1.930466 -1.114568 6.059300 -6.776492 -4.440409 -2.663592 -0.206086 0.411640 0.000000 0.000000 0.000000 4.522655 3.916805 1.369833 -60.784621 -4.857016 12.603285 -179.507712 -85.184761 -179.985489 -2.964178 5.172022 -0.125818 -0.008739 0.270643 0.000000 0.000000 0.000000 0.000000 0.000000 0.000000 0.000000 6.463230 -3.176849 0.974244 73.540158 -7.971874 4.923082 0.384499 74.570588 -0.026614 -6.558254 1.552146 -0.104616 0.080427 -0.264102 -0.000000 0.000000 0.000000 0.000000 0.000000 0.000000 0.000000 
-1.850893 16.043469 0.296834 44.629357 80.325085 73.762585 -11.913091 0.828830 -5.237262 -7.004833 11.050054 -35.155456 0.036802 4.384641 64.043802 0.550307 -2.729829 10.729892 -1.083199 -0.000000 -52.792000 7.928073 1.585373 -2.569733 18.159398 -2.800395 -64.514405 2.302753 -4.279961 49.158902 -3.526109 -8.752045 -23.318162 -177.775100 0.000000 -16.031800 5.397287 -1.964494 11.075756 0.620058 -1.887106 -0.843319 -4.393219 -1.872811 -1.130914 6.103813 -6.580883 -4.311894 -2.625900 -0.204834 0.446011 0.000000 0.000000 0.000000 4.389189 3.867515 1.383279 -61.477777 -4.166803 12.833314 -179.587020 -86.230928 -179.985187 -3.041610 5.128845 -0.128223 -0.006162 0.265160 -0.000000 0.000000 0.000000 0.000000 0.000000 0.000000 0.000000 6.344262 -2.971575 0.907145 73.543154 -7.141588 4.777316 0.375985 74.666972 -0.027419 -6.646382 1.500811 -0.103223 0.081699 -0.267138 -0.000000 0.000000 0.000000 0.000000 0.000000 0.000000 0.000000 
-1.732662 16.050456 0.346658 43.430447 79.918306 72.622348 -11.876310 0.837527 -5.225711 -7.218305 11.041528 -35.591646 0.109322 4.420865 64.702243 0.631179 -2.095053 11.322752 -0.949800 0.000000 -49.002700 7.996448 1.604785 -2.600042 18.079468 -2.927404 -64.242328 2.305405 -4.294744 49.552246 -3.464544 -8.372922 -23.794480 -177.730300 0.000000 -16.198100 5.356652 -1.907117 11.086821 0.620140 -1.826586 -0.843925 -4.342641 -1.814286 -1.147155 6.143494 -6.383601 -4.194464 -2.586120 -0.203339 0.477249 0.000000 0.000000 0.000000 4.231018 3.838592 1.405902 -62.121953 -3.483674 13.052145 -179.666616 -87.309119 -179.985077 -3.095597 5.079532 -0.129425 -0.004450 0.259743 0.000000 0.000000 0.000000 0.000000 0.000000 0.000000 0.000000 6.212320 -2.757957 0.837390 73.540878 -6.321146 4.646670 0.365736 74.828478 -0.028207 -6.718287 1.463010 -0.102329 0.082690 -0.270640 -0.000000 0.000000 0.000000 0.000000 0.000000 0.000000 0.000000 
